<?xml version="1.0" encoding="utf-8"?>
<!-- Generator: Adobe Illustrator 19.2.1, SVG Export Plug-In . SVG Version: 6.00 Build 0)  -->
<svg version="1.1" xmlns="http://www.w3.org/2000/svg" xmlns:xlink="http://www.w3.org/1999/xlink" x="0px" y="0px"
	 viewBox="0 0 175.1 88.4" style="enable-background:new 0 0 175.1 88.4;" xml:space="preserve">
<style type="text/css">
	.st0{fill:#FFFFFF;}
	.st1{fill:#C0392B;}
	.st2{fill:#183F5C;}
	.st3{fill:#2980B9;stroke:#2980B9;stroke-miterlimit:10;}
</style>
<g id="Layer_1">
	<g>
	</g>
	<g>
	</g>
	<g>
	</g>
	<g>
	</g>
</g>
<g id="borja">
	<g>
		<g>
			<path class="st0" d="M0.4,5.3l7.9-4.9h2v18.9c2-2,4.7-3.2,8.4-3.2c8.4,0,13.1,6.6,13.1,15.1c0,8.6-4.7,15.2-13.5,15.2
				c-3.8,0-6.6-1.2-8.6-3.3l-2.8,3.3H4.7V8.9c0-1.8-0.6-2.3-2-2.3H0.4V5.3z M10.2,22.2v18c1.6,2.1,3.9,3.5,7,3.5
				c6.3,0,8.4-5.2,8.4-12.5s-2.1-12.4-8.4-12.4C14.1,18.8,11.8,20.1,10.2,22.2z"/>
			<path d="M18.2,46.7c-3.6,0-6.5-1-8.5-3.1L7,46.7H4.3V8.9c0-1.7-0.5-2-1.6-2H0V5.1L8.1,0h2.4v18.4c2.1-1.8,4.8-2.7,8-2.7
				c8.1,0,13.5,6.2,13.5,15.5C32.1,40.6,26.6,46.7,18.2,46.7z M9.6,42.5l0.3,0.3c2,2.1,4.7,3.2,8.3,3.2c8,0,13.1-5.8,13.1-14.8
				c0-8.8-5.1-14.7-12.7-14.7c-3.4,0-6.1,1-8.1,3.1l-0.6,0.7V0.8H8.4L0.8,5.5v0.7h2C4.4,6.2,5,7,5,8.9V46h1.7L9.6,42.5z M17.2,44
				c-3,0-5.6-1.3-7.3-3.6l-0.1-0.1V22.1L9.9,22c1.7-2.4,4.3-3.6,7.3-3.6c5.9,0,8.8,4.3,8.8,12.8C26,39.7,23,44,17.2,44z M10.6,40.1
				c1.6,2.1,3.9,3.2,6.6,3.2c5.4,0,8.1-4,8.1-12.1c0-8.1-2.6-12-8.1-12c-2.7,0-5,1.1-6.6,3.2V40.1z"/>
		</g>
		<g>
			<path class="st0" d="M50,16.1c8.9,0,14.9,6.6,14.9,15.1c0,8.6-6,15.2-14.9,15.2c-8.9,0-14.8-6.6-14.8-15.2
				C35.2,22.6,41.1,16.1,50,16.1z M50,43.9c6.4,0,8.8-5.4,8.8-12.7S56.4,18.5,50,18.5c-6.4,0-8.8,5.4-8.8,12.7S43.7,43.9,50,43.9z"
				/>
			<path d="M50,46.7c-8.8,0-15.2-6.5-15.2-15.6c0-9,6.4-15.5,15.2-15.5c8.8,0,15.2,6.5,15.2,15.5C65.3,40.2,58.9,46.7,50,46.7z
				 M50,16.4c-8.5,0-14.4,6.1-14.4,14.7C35.6,39.9,41.5,46,50,46c8.4,0,14.5-6.2,14.5-14.8C64.5,22.6,58.4,16.4,50,16.4z M50,44.3
				c-6,0-9.1-4.5-9.1-13.1c0-8.5,3.2-13,9.1-13c5.9,0,9.2,4.6,9.2,13C59.2,39.6,55.9,44.3,50,44.3z M50,18.9
				c-6.9,0-8.4,6.7-8.4,12.3c0,5.6,1.5,12.4,8.4,12.4c7,0,8.4-6.7,8.4-12.4C58.5,25.6,57,18.9,50,18.9z"/>
		</g>
		<g>
			<path class="st0" d="M88.7,23.1c-2.7,0-3.1-2.9-5.2-2.9c-1.5,0-3.5,1-5,3.2v17.1c0,2.3,0.8,3,4.2,3.3v1.6h-14v-1.6
				c3.5-0.3,4.3-1,4.3-3.3V24.3c0-1.5-0.6-2.1-2-2.1h-2.3V21l7.9-4.9h2v4.2c2.2-2.6,5.5-4.2,8.4-4.2c3.5,0,4.9,1.8,4.9,3.8
				S90.5,23.1,88.7,23.1z"/>
			<path d="M83.2,45.8H68.4v-2.3l0.3,0c3.4-0.3,3.9-0.9,3.9-2.9V24.3c0-1.3-0.4-1.7-1.6-1.7h-2.7v-1.8l8.1-5.1h2.4v3.6
				c2.2-2.2,5.2-3.6,8-3.6c3.9,0,5.2,2.2,5.2,4.2c0,2.2-1.4,3.6-3.5,3.6c-1.6,0-2.5-0.9-3.2-1.7c-0.6-0.6-1.1-1.2-1.9-1.2
				c-1.2,0-3.1,0.8-4.6,3v17c0,1.9,0.5,2.6,3.9,2.9l0.3,0V45.8z M69.1,45h13.3v-0.9c-3.3-0.3-4.2-1.2-4.2-3.6V23.3l0.1-0.1
				c1.6-2.5,3.9-3.4,5.3-3.4c1.1,0,1.8,0.7,2.5,1.4c0.7,0.8,1.4,1.5,2.7,1.5c1.7,0,2.7-1.1,2.7-2.8c0-2.2-1.7-3.5-4.5-3.5
				c-2.9,0-6.1,1.6-8.1,4l-0.7,0.8v-4.8h-1.5l-7.6,4.7v0.7h2c1.6,0,2.3,0.8,2.3,2.5v16.3c0,2.4-1,3.3-4.3,3.6V45z"/>
		</g>
		<g>
			<path class="st0" d="M88.4,54.4c0-1.5,1.3-2.8,2.8-2.8c2.8,0,2.6,3,4.8,3c1.8,0,3.3-1.4,3.3-4.7V24.3c0-1.5-0.6-2.1-2-2.1h-2.3
				V21l7.9-4.9h2v28.2c0,9.3-5,13.7-11.6,13.7C90.6,58,88.4,56.8,88.4,54.4z"/>
			<path d="M93.3,58.3c-3.2,0-5.2-1.5-5.2-3.9c0-1.7,1.5-3.2,3.2-3.2c1.7,0,2.4,1,3,1.8c0.5,0.7,0.9,1.2,1.7,1.2
				c1.8,0,2.9-1.6,2.9-4.3V24.3c0-1.3-0.4-1.7-1.6-1.7h-2.7v-1.8l8.1-5.1h2.4v28.6C105.3,53.1,100.8,58.3,93.3,58.3z M91.3,52
				c-1.3,0-2.5,1.1-2.5,2.5c0,2.9,3.4,3.2,4.5,3.2c7,0,11.2-5,11.2-13.3V16.4H103l-7.6,4.7v0.7h2c1.6,0,2.3,0.8,2.3,2.5v25.6
				c0,3.2-1.4,5.1-3.7,5.1c-1.2,0-1.8-0.8-2.3-1.5C93.1,52.7,92.6,52,91.3,52z"/>
		</g>
		<g>
			<path class="st0" d="M128.6,42.2c-2.9,2-6.6,4-10.5,4c-5.2,0-8.5-2.3-8.5-6.7c0-6.8,8.1-9.1,18.8-10.9v-3.8c0-4.6-1-6.4-4.5-6.4
				c-3.7,0-5.8,1.5-6.6,4.6c-0.6,2.1-1.8,3-3.1,3c-1.6,0-2.5-0.9-2.5-2.8c0-3.6,4.8-7.2,12.5-7.2c5.4,0,9.8,2,9.8,8.9v14.8
				c0,2.3,0.6,3.4,2,3.4c0.6,0,1.4-0.2,2.3-0.7v2.3c-1.3,0.9-2.8,1.4-4.9,1.4C131,46.1,129.1,44.9,128.6,42.2z M128.5,39.8V31
				c-7.7,1.1-12.8,2.9-12.8,7.7c0,3,1.9,4.3,4.5,4.3C123,43,125.7,41.6,128.5,39.8z"/>
			<path d="M118.1,46.6c-5.6,0-8.9-2.6-8.9-7.1c0-7.4,9.3-9.6,18.8-11.2v-3.5c0-4.6-1-6-4.2-6c-3.5,0-5.5,1.4-6.2,4.3
				c-0.8,2.9-2.5,3.3-3.5,3.3c-1.8,0-2.8-1.1-2.8-3.2c0-3.7,4.8-7.6,12.8-7.6c6.8,0,10.2,3.1,10.2,9.3v14.8c0,2.7,0.8,3,1.6,3
				c0.6,0,1.3-0.2,2.2-0.6l0.6-0.3v3.1l-0.2,0.1c-1.5,1-3.1,1.4-5.1,1.4c-2.7,0-4.5-1.3-5.2-3.7C124.6,45.4,121.2,46.6,118.1,46.6z
				 M123.9,18.1c4.1,0,4.9,2.5,4.9,6.7v4.1l-0.3,0.1c-11.4,1.9-18.5,4.3-18.5,10.5c0,4,3,6.4,8.1,6.4c3.1,0,6.4-1.3,10.2-4l0.5-0.3
				l0.1,0.6c0.6,3,2.8,3.6,4.5,3.6c1.8,0,3.2-0.4,4.5-1.2v-1.5c-0.7,0.3-1.4,0.5-2,0.5c-2.4,0-2.4-2.8-2.4-3.8V24.9
				c0-5.7-3.1-8.5-9.5-8.5c-7.6,0-12.1,3.5-12.1,6.8c0,1.7,0.7,2.5,2.1,2.5c1.3,0,2.3-0.9,2.8-2.7C117.8,19.7,120.1,18.1,123.9,18.1
				z M120.1,43.4c-3,0-4.8-1.7-4.8-4.7c0-5.1,5.2-7,13.1-8.1l0.4-0.1v9.4l-0.2,0.1C125.4,42.3,122.7,43.4,120.1,43.4z M128.1,31.4
				c-7.2,1.1-12,2.8-12,7.3c0,3.4,2.6,3.9,4.1,3.9c2.3,0,4.9-1,7.9-3.1V31.4z"/>
		</g>
	</g>
	<g>
		<path class="st1" d="M102.2,1.8c2.5,0,4.2,1.9,4.2,4.1c0,2.2-1.7,4-4.2,4c-2.6,0-4.3-1.9-4.3-4C98,3.7,99.7,1.8,102.2,1.8z"/>
	</g>
</g>
<g id="designs">
	<g>
		<path class="st2" d="M74,78.5c0-3.7-3.1-4.1-3.1-4.1v-2.2c0,0,3.1-0.4,3.1-4.1v-3c0-5.9,3.9-6.4,5.4-6.4c0.3,0,0.5,0,0.5,0v2
			c0,0-0.1,0-0.3,0c-0.9,0-3.3,0.3-3.3,4.5v3.5c0,3.5-2.9,4.6-2.9,4.6v0.1c0,0,2.9,0.9,2.9,4.6v4c0,4.1,2.4,4.5,3.3,4.5
			c0.2,0,0.3,0,0.3,0v2c0,0-0.2,0-0.5,0c-1.4,0-5.4-0.5-5.4-6.5V78.5z"/>
		<path class="st3" d="M83.4,65.1h3.6c4.9,0,7.1,3.2,7.1,7.9s-2.2,8-7.1,8h-3.6V65.1z M86.8,80.3c4.5,0,6.4-3.1,6.4-7.3
			s-1.9-7.2-6.4-7.2h-2.7v14.5H86.8z"/>
		<path class="st3" d="M99.4,65.1h8.5v0.7h-7.7v6.4h6.5v0.7h-6.5v7.4h8v0.7h-8.7V65.1z"/>
		<path class="st3" d="M112.6,78.3c1.2,1.3,2.8,2.2,4.8,2.2c2.5,0,4.2-1.4,4.2-3.4c0-2.1-1.3-2.8-2.9-3.5l-2.4-1.1
			c-1.3-0.6-3.2-1.5-3.2-3.9c0-2.3,1.9-3.8,4.5-3.8c1.9,0,3.4,0.9,4.3,1.9l-0.5,0.5c-0.9-1-2.2-1.7-3.8-1.7c-2.2,0-3.7,1.2-3.7,3
			c0,2,1.7,2.7,2.8,3.2l2.4,1.1c1.8,0.8,3.4,1.7,3.4,4.2c0,2.4-2,4.2-4.9,4.2c-2.4,0-4.1-1-5.3-2.4L112.6,78.3z"/>
		<path class="st3" d="M127.3,65.1h0.8v15.8h-0.8V65.1z"/>
		<path class="st3" d="M140.3,64.8c2.1,0,3.4,1,4.2,1.9l-0.5,0.5c-0.8-0.9-2-1.7-3.7-1.7c-3.8,0-6.1,2.9-6.1,7.4s2.2,7.5,5.9,7.5
			c1.5,0,3-0.5,3.8-1.3V74H140v-0.7h4.7v6.1c-1,1.1-2.5,1.8-4.6,1.8c-4,0-6.7-3.3-6.7-8.3S136.1,64.8,140.3,64.8z"/>
		<path class="st3" d="M150.5,65.1h0.8l7,11.6l1.8,3.1h0.1c0-1.5-0.1-3-0.1-4.5V65.1h0.7v15.8H160l-7-11.6l-1.8-3.1h-0.1
			c0,1.5,0.1,2.8,0.1,4.3v10.4h-0.7V65.1z"/>
		<path class="st2" d="M166.5,86.4c0.9,0,3.3-0.4,3.3-4.5v-4c0-3.7,2.9-4.6,2.9-4.6v-0.1c0,0-2.9-1-2.9-4.6v-3.5
			c0-4.2-2.4-4.5-3.3-4.5c-0.2,0-0.4,0-0.4,0v-2c0,0,0.2,0,0.6,0c1.4,0,5.3,0.5,5.3,6.4v3c0,3.8,3.1,4.1,3.1,4.1v2.2
			c0,0-3.1,0.4-3.1,4.1v3.4c0,6-3.9,6.5-5.3,6.5c-0.4,0-0.6,0-0.6,0v-2C166.2,86.4,166.3,86.4,166.5,86.4z"/>
	</g>
</g>
<g id="close_tag">
</g>
</svg>
