<?xml version="1.0" encoding="utf-8"?>
<!-- Generator: Adobe Illustrator 18.1.1, SVG Export Plug-In . SVG Version: 6.00 Build 0)  -->
<svg version="1.1" xmlns="http://www.w3.org/2000/svg" xmlns:xlink="http://www.w3.org/1999/xlink" x="0px" y="0px"
	 viewBox="0 0 200 100" style="enable-background:new 0 0 200 100;" xml:space="preserve">
<style type="text/css">
	.st0{fill:#CC6633;}
	.st1{fill:#183F5C;}
	.st2{fill:#0071BC;stroke:#0071BC;stroke-miterlimit:10;}
	.st3{fill:#C90D35;stroke:#A00D35;stroke-width:0.25;stroke-miterlimit:10;}
</style>
<g id="Layer_1">
	<g>
	</g>
	<g>
	</g>
	<g>
	</g>
	<g>
	</g>
</g>
<g id="borja">
	<g>
		<path class="st0" d="M7.171,6.787l7.875-4.914h1.953v18.901c1.953-2.016,4.726-3.213,8.38-3.213
			c8.379,0,13.104,6.616,13.104,15.121c0,8.568-4.725,15.184-13.483,15.184c-3.843,0-6.615-1.197-8.568-3.276l-2.772,3.276h-2.205
			V10.378c0-1.764-0.567-2.331-1.953-2.331H7.171V6.787z M16.999,23.734V41.69c1.575,2.142,3.906,3.465,6.994,3.465
			c6.3,0,8.442-5.166,8.442-12.475S30.293,20.27,23.993,20.27C20.905,20.27,18.574,21.592,16.999,23.734z"/>
		<path class="st0" d="M56.815,17.56c8.884,0,14.869,6.553,14.869,15.121c0,8.631-5.985,15.184-14.869,15.184
			c-8.883,0-14.806-6.552-14.806-15.184C42.009,24.113,47.932,17.56,56.815,17.56z M56.815,45.408c6.364,0,8.821-5.418,8.821-12.727
			s-2.457-12.664-8.821-12.664c-6.363,0-8.757,5.355-8.757,12.664S50.452,45.408,56.815,45.408z"/>
		<path class="st0" d="M95.497,24.617c-2.709,0-3.087-2.898-5.167-2.898c-1.512,0-3.528,1.008-4.977,3.213v17.137
			c0,2.268,0.819,2.961,4.221,3.276v1.575h-14.05v-1.575c3.465-0.315,4.284-1.008,4.284-3.276V25.814c0-1.512-0.567-2.08-1.953-2.08
			h-2.331v-1.26L83.4,17.56h1.953v4.159c2.205-2.646,5.544-4.159,8.379-4.159c3.465,0,4.851,1.827,4.851,3.843
			S97.324,24.617,95.497,24.617z"/>
		<path class="st0" d="M95.242,55.93c0-1.513,1.26-2.835,2.835-2.835c2.772,0,2.646,3.023,4.788,3.023
			c1.827,0,3.276-1.386,3.276-4.725v-25.58c0-1.512-0.567-2.08-1.953-2.08h-2.331v-1.26l7.875-4.915h1.953v28.226
			c0,9.325-5.04,13.672-11.592,13.672C97.384,59.458,95.242,58.323,95.242,55.93z M109.04,3.826c2.205,0,3.717,1.638,3.717,3.591
			c0,1.89-1.512,3.528-3.717,3.528c-2.269,0-3.718-1.638-3.718-3.528C105.322,5.463,106.771,3.826,109.04,3.826z"/>
		<path class="st0" d="M135.374,43.707c-2.897,2.016-6.615,4.032-10.458,4.032c-5.229,0-8.506-2.331-8.506-6.741
			c0-6.804,8.064-9.135,18.838-10.899v-3.78c0-4.599-1.008-6.363-4.536-6.363c-3.654,0-5.796,1.512-6.553,4.599
			c-0.566,2.142-1.764,3.024-3.149,3.024c-1.575,0-2.457-0.945-2.457-2.835c0-3.591,4.788-7.183,12.475-7.183
			c5.355,0,9.828,1.953,9.828,8.884V41.25c0,2.331,0.63,3.402,2.017,3.402c0.63,0,1.386-0.189,2.331-0.693v2.268
			c-1.323,0.882-2.836,1.386-4.915,1.386C137.769,47.613,135.878,46.416,135.374,43.707z M135.248,41.25v-8.757
			c-7.687,1.134-12.789,2.898-12.789,7.75c0,2.961,1.89,4.284,4.473,4.284C129.767,44.526,132.539,43.14,135.248,41.25z"/>
	</g>
</g>
<g id="designs">
	<g>
		<path class="st1" d="M78.758,80.526c0-3.743-3.06-4.104-3.06-4.104v-2.231c0,0,3.06-0.36,3.06-4.14V67.1
			c0-5.938,3.924-6.442,5.363-6.442c0.324,0,0.54,0,0.54,0v2.016c0,0-0.144,0-0.324,0c-0.9,0-3.312,0.324-3.312,4.499v3.527
			c0,3.528-2.879,4.572-2.879,4.572v0.071c0,0,2.879,0.9,2.879,4.571v3.96c0,4.14,2.412,4.499,3.312,4.499c0.18,0,0.324,0,0.324,0
			v2.016c0,0-0.216,0.036-0.54,0.036c-1.439,0-5.363-0.504-5.363-6.479V80.526z"/>
		<path class="st2" d="M88.19,67.092h3.552c4.896,0,7.104,3.169,7.104,7.873s-2.208,7.969-7.104,7.969H88.19V67.092z M91.647,82.262
			c4.512,0,6.384-3.12,6.384-7.297s-1.872-7.2-6.384-7.2h-2.688v14.497H91.647z"/>
		<path class="st2" d="M104.246,67.092h8.497v0.673h-7.729v6.384h6.48v0.673h-6.48v7.44h7.969v0.672h-8.737V67.092z"/>
		<path class="st2" d="M117.374,80.293c1.152,1.345,2.832,2.209,4.753,2.209c2.544,0,4.176-1.393,4.176-3.408
			c0-2.112-1.344-2.785-2.928-3.505l-2.448-1.104c-1.345-0.6-3.217-1.535-3.217-3.888c0-2.257,1.921-3.792,4.465-3.792
			c1.92,0,3.408,0.888,4.32,1.872l-0.48,0.527c-0.912-1.008-2.208-1.68-3.84-1.68c-2.208,0-3.696,1.2-3.696,3.024
			c0,1.968,1.656,2.712,2.784,3.216l2.448,1.104c1.752,0.792,3.36,1.728,3.36,4.176c0,2.4-1.969,4.177-4.944,4.177
			c-2.353,0-4.081-1.008-5.281-2.4L117.374,80.293z"/>
		<path class="st2" d="M132.088,67.092h0.768v15.842h-0.768V67.092z"/>
		<path class="st2" d="M145.12,66.805c2.111,0,3.408,1.008,4.224,1.872l-0.479,0.527c-0.816-0.912-1.969-1.68-3.744-1.68
			c-3.793,0-6.097,2.88-6.097,7.44s2.208,7.537,5.904,7.537c1.536,0,2.977-0.48,3.792-1.297v-5.232h-3.937v-0.672h4.705v6.145
			c-0.96,1.057-2.545,1.776-4.608,1.776c-4.032,0-6.673-3.265-6.673-8.257S140.943,66.805,145.12,66.805z"/>
		<path class="st2" d="M155.271,67.092h0.815l7.009,11.617l1.824,3.12h0.096c-0.048-1.536-0.096-2.976-0.096-4.464V67.092h0.72
			v15.842h-0.815l-7.009-11.617l-1.824-3.12h-0.096c0.048,1.488,0.096,2.832,0.096,4.32v10.417h-0.72V67.092z"/>
		<path class="st2" d="M171.326,80.293c1.152,1.345,2.832,2.209,4.753,2.209c2.544,0,4.176-1.393,4.176-3.408
			c0-2.112-1.344-2.785-2.928-3.505l-2.448-1.104c-1.345-0.6-3.217-1.535-3.217-3.888c0-2.257,1.92-3.792,4.465-3.792
			c1.92,0,3.408,0.888,4.32,1.872l-0.48,0.527c-0.912-1.008-2.208-1.68-3.84-1.68c-2.208,0-3.696,1.2-3.696,3.024
			c0,1.968,1.656,2.712,2.784,3.216l2.448,1.104c1.752,0.792,3.36,1.728,3.36,4.176c0,2.4-1.969,4.177-4.944,4.177
			c-2.353,0-4.081-1.008-5.281-2.4L171.326,80.293z"/>
		<path class="st1" d="M185.318,88.373c0.863,0,3.275-0.359,3.275-4.499v-3.96c0-3.671,2.88-4.571,2.88-4.571v-0.071
			c0,0-2.88-1.044-2.88-4.572v-3.527c0-4.175-2.412-4.499-3.275-4.499c-0.216,0-0.36,0-0.36,0v-2.016c0,0,0.216,0,0.576,0
			c1.403,0,5.327,0.504,5.327,6.442v2.952c0,3.779,3.06,4.14,3.06,4.14v2.231c0,0-3.06,0.36-3.06,4.104v3.42
			c0,5.975-3.924,6.479-5.327,6.479c-0.36,0-0.576-0.036-0.576-0.036v-2.016C184.958,88.373,185.103,88.373,185.318,88.373z"/>
	</g>
</g>
<g id="close_tag">
	<g>
		<path class="st3" d="M165.759,35.438l0.303,0.66l-0.571,1.08c-0.112,0.22-0.247,0.385-0.403,0.495
			c-0.156,0.11-0.392,0.165-0.705,0.165c-0.202,0-0.409-0.02-0.622-0.06c-0.213-0.04-0.51-0.13-0.891-0.27
			c-0.134-0.08-0.33-0.145-0.588-0.195c-0.258-0.05-0.532-0.095-0.823-0.135c-0.224-0.16-0.426-0.31-0.604-0.45
			c-0.157-0.1-0.308-0.2-0.453-0.3c-0.146-0.1-0.23-0.15-0.252-0.15l-0.739-0.27h0.101c-0.067-0.02-0.168-0.04-0.303-0.06
			c-0.134-0.02-0.269-0.049-0.403-0.09c-0.156-0.04-0.324-0.07-0.504-0.09c-0.336-0.26-0.644-0.44-0.924-0.54s-0.566-0.2-0.856-0.3
			c-0.247-0.08-0.482-0.16-0.706-0.24c-0.224-0.08-0.426-0.16-0.604-0.24c-0.045,0-0.106-0.004-0.185-0.015
			c-0.079-0.01-0.141-0.035-0.186-0.075h-0.47c-0.135-0.12-0.258-0.18-0.37-0.18h-0.369c-0.046,0-0.124-0.03-0.235-0.09
			c-0.112-0.06-0.225-0.109-0.336-0.15h-0.067c-0.045,0-0.079-0.03-0.101-0.09c-0.045-0.04-0.129-0.085-0.252-0.135
			c-0.124-0.05-0.23-0.115-0.319-0.195c-0.067-0.16-0.112-0.28-0.135-0.36s-0.028-0.135-0.017-0.165
			c0.011-0.03,0.022-0.05,0.033-0.06c0.012-0.01,0.018-0.035,0.018-0.075l-0.102-0.18c0-0.42,0.118-0.675,0.354-0.765
			c0.235-0.09,0.498-0.135,0.789-0.135h0.538c0.179,0,0.554-0.084,1.125-0.255c0.571-0.169,1.148-0.365,1.73-0.585
			c0.694-0.24,1.456-0.52,2.285-0.84c0.179-0.12,0.381-0.23,0.604-0.33s0.426-0.21,0.605-0.33h0.101h0.101
			c0.179-0.16,0.313-0.26,0.403-0.3c0.089-0.04,0.168-0.08,0.235-0.12c0.246-0.1,0.525-0.205,0.84-0.315
			c0.313-0.11,0.537-0.225,0.672-0.345c0.045,0,0.101-0.03,0.168-0.09c0.045-0.02,0.078-0.05,0.101-0.09l0.471-0.09
			c0.336-0.22,0.688-0.37,1.059-0.45c0.369-0.08,0.609-0.12,0.722-0.12c0.27,0,0.465,0.045,0.589,0.135
			c0.122,0.09,0.212,0.206,0.269,0.345c0.056,0.14,0.084,0.295,0.084,0.465c0,0.17,0,0.325,0,0.465l-0.202,0.24
			c0,0.14-0.033,0.265-0.101,0.375c-0.067,0.11-0.123,0.185-0.168,0.225c-0.336,0.16-0.705,0.295-1.108,0.405
			c-0.403,0.11-0.661,0.165-0.773,0.165c-0.179,0-0.453,0.075-0.823,0.225c-0.369,0.15-0.756,0.33-1.159,0.54
			c-0.402,0.21-0.778,0.415-1.125,0.615c-0.348,0.2-0.588,0.351-0.723,0.45c-0.18,0.041-0.348,0.09-0.504,0.15
			c-0.157,0.041-0.314,0.085-0.471,0.135s-0.291,0.095-0.403,0.135l-0.772,0.18l0.336,0.06c0.09,0.02,0.174,0.03,0.252,0.03
			s0.14,0,0.185,0l0.471,0.15c0.156,0.12,0.381,0.245,0.672,0.375c0.291,0.13,0.588,0.24,0.891,0.33
			c0.303,0.09,0.571,0.165,0.807,0.225s0.375,0.09,0.42,0.09c0.089,0,0.189,0.025,0.302,0.075c0.112,0.05,0.225,0.105,0.337,0.165
			c0.111,0.08,0.234,0.16,0.369,0.24c0.246,0.14,0.454,0.245,0.622,0.315c0.168,0.07,0.374,0.105,0.621,0.105L165.759,35.438z"/>
		<path class="st3" d="M171.169,38.618c-0.247,0.38-0.449,0.745-0.605,1.095c-0.156,0.35-0.325,0.645-0.504,0.885
			c-0.247,0.64-0.493,1.205-0.739,1.695c-0.246,0.49-0.56,1.065-0.94,1.725c-0.112,0.1-0.258,0.18-0.437,0.24
			c-0.18,0.06-0.365,0.105-0.555,0.135c-0.19,0.03-0.358,0.045-0.504,0.045s-0.24,0-0.286,0l0.102-0.33
			c0.045-0.46,0.101-0.855,0.168-1.185c0.066-0.33,0.201-0.605,0.402-0.825c0.022-0.101,0.067-0.21,0.135-0.33s0.14-0.24,0.219-0.36
			c0.078-0.12,0.156-0.235,0.235-0.345c0.078-0.11,0.128-0.205,0.15-0.285c0.18-0.42,0.325-0.81,0.438-1.17
			c0.111-0.36,0.246-0.67,0.403-0.93c0.179-0.22,0.347-0.47,0.504-0.75c0.156-0.28,0.234-0.53,0.234-0.75
			c0.045-0.2,0.163-0.49,0.354-0.87c0.189-0.38,0.386-0.765,0.588-1.155c0.201-0.39,0.387-0.74,0.555-1.05s0.263-0.505,0.285-0.585
			c0.201-0.24,0.403-0.585,0.604-1.035c0.202-0.45,0.397-0.915,0.588-1.395s0.381-0.935,0.571-1.365s0.375-0.755,0.555-0.975
			c0.336-0.7,0.655-1.385,0.958-2.055c0.302-0.67,0.609-1.425,0.924-2.265c0.246-0.68,0.447-1.3,0.604-1.86
			c0.156-0.56,0.324-1.05,0.504-1.47c0.135,0,0.308-0.04,0.521-0.12c0.212-0.08,0.42-0.17,0.621-0.27s0.387-0.205,0.555-0.315
			s0.285-0.185,0.353-0.225c0.156,0,0.308,0.07,0.454,0.21c0.145,0.14,0.308,0.29,0.486,0.45c0,0.34-0.056,0.595-0.168,0.765
			c-0.112,0.17-0.213,0.416-0.302,0.735c-0.046,0.3-0.151,0.565-0.319,0.795s-0.342,0.465-0.521,0.705c0,0.1-0.006,0.22-0.018,0.36
			c-0.011,0.14-0.033,0.275-0.066,0.405c-0.034,0.13-0.084,0.246-0.151,0.345c-0.067,0.1-0.146,0.15-0.235,0.15
			c-0.225,0.32-0.381,0.56-0.471,0.72c-0.067,0.12-0.123,0.24-0.168,0.36c-0.134,0.26-0.229,0.455-0.285,0.585
			c-0.057,0.13-0.084,0.295-0.084,0.495c-0.247,0.26-0.493,0.635-0.739,1.125c-0.247,0.49-0.487,1-0.723,1.53
			c-0.235,0.53-0.465,1.035-0.688,1.515c-0.225,0.48-0.415,0.82-0.571,1.02c-0.022,0.18-0.118,0.465-0.286,0.855
			s-0.353,0.785-0.554,1.185c-0.202,0.4-0.409,0.775-0.622,1.125c-0.213,0.35-0.375,0.575-0.487,0.675c0.067,0.14,0.067,0.27,0,0.39
			s-0.151,0.235-0.252,0.345s-0.196,0.22-0.285,0.33c-0.09,0.11-0.135,0.225-0.135,0.345L171.169,38.618z"/>
		<path class="st3" d="M180.14,29.917l-0.168-0.75l0.537-0.99c0.112-0.26,0.246-0.435,0.403-0.525
			c0.156-0.09,0.403-0.135,0.739-0.135c0.135,0,0.319,0.025,0.555,0.075c0.234,0.05,0.509,0.135,0.823,0.255
			c0.179,0.04,0.386,0.095,0.621,0.165c0.235,0.07,0.498,0.125,0.79,0.165l0.604,0.48c0.156,0.12,0.303,0.225,0.437,0.315
			c0.135,0.09,0.224,0.135,0.269,0.135l0.739,0.24c0.067,0.04,0.168,0.065,0.303,0.075c0.135,0.01,0.258,0.035,0.37,0.075
			c0.134,0.04,0.29,0.07,0.47,0.09c0.381,0.26,0.706,0.445,0.975,0.555s0.526,0.205,0.772,0.285c0.516,0.1,0.985,0.27,1.411,0.51
			h0.27c0.111,0,0.246,0.015,0.403,0.045c0.156,0.03,0.179,0.045,0.066,0.045c0.112,0.041,0.196,0.075,0.252,0.105
			c0.056,0.03,0.129,0.045,0.219,0.045h0.303c0.089,0,0.189,0.03,0.302,0.09s0.19,0.09,0.235,0.09
			c0.067,0.041,0.135,0.09,0.202,0.15c0.089,0.041,0.189,0.075,0.302,0.105c0.112,0.03,0.19,0.105,0.235,0.225
			c0.09,0.18,0.151,0.305,0.185,0.375c0.034,0.07,0.039,0.12,0.018,0.15c-0.022,0.03-0.046,0.045-0.067,0.045
			c-0.022,0-0.034,0.01-0.034,0.03c0,0.06,0.012,0.11,0.034,0.15c0.021,0.041,0.045,0.07,0.067,0.09c0,0.42-0.112,0.665-0.336,0.735
			c-0.225,0.07-0.46,0.105-0.706,0.105c-0.09,0-0.19,0.015-0.303,0.045s-0.224,0.045-0.336,0.045c-0.18,0-0.554,0.085-1.125,0.255
			c-0.571,0.17-1.148,0.355-1.73,0.555c-0.718,0.22-1.479,0.48-2.285,0.78c-0.134,0.161-0.325,0.285-0.571,0.375
			c-0.246,0.09-0.459,0.186-0.639,0.285c-0.066,0-0.134,0.03-0.201,0.09c-0.067,0.041-0.14,0.081-0.219,0.12
			c-0.078,0.041-0.15,0.08-0.218,0.12c-0.09,0.06-0.157,0.11-0.202,0.15c-0.246,0.101-0.51,0.2-0.789,0.3
			c-0.28,0.1-0.521,0.2-0.723,0.3c0,0.02-0.045,0.07-0.135,0.15c-0.045,0.041-0.09,0.07-0.134,0.09l-0.471,0.09
			c-0.313,0.16-0.649,0.285-1.008,0.375s-0.616,0.135-0.772,0.135c-0.449,0-0.701-0.15-0.757-0.45c-0.056-0.3-0.084-0.6-0.084-0.9
			c0.022-0.04,0.056-0.08,0.102-0.12c0.021-0.04,0.044-0.075,0.066-0.105c0.022-0.03,0.034-0.065,0.034-0.105
			c0-0.24,0.089-0.41,0.269-0.51c0.336-0.16,0.706-0.295,1.109-0.405c0.402-0.11,0.66-0.165,0.772-0.165
			c0.156,0,0.414-0.075,0.772-0.225s0.733-0.325,1.126-0.525c0.392-0.2,0.761-0.405,1.108-0.615s0.588-0.365,0.723-0.465
			c0.201-0.04,0.392-0.09,0.571-0.15c0.156-0.04,0.308-0.085,0.453-0.135c0.146-0.049,0.274-0.095,0.387-0.135l0.739-0.18
			c-0.135,0-0.247-0.01-0.336-0.03c-0.09,0-0.174-0.005-0.252-0.015c-0.079-0.01-0.129-0.015-0.151-0.015l-0.471-0.18
			c-0.134-0.12-0.348-0.24-0.638-0.36c-0.292-0.12-0.583-0.225-0.874-0.315c-0.291-0.09-0.555-0.165-0.789-0.225
			c-0.235-0.06-0.376-0.09-0.421-0.09c-0.112,0-0.234-0.025-0.369-0.075s-0.258-0.105-0.37-0.165c-0.134-0.08-0.257-0.17-0.369-0.27
			c-0.18-0.16-0.364-0.27-0.555-0.33s-0.375-0.09-0.554-0.09L180.14,29.917z"/>
	</g>
</g>
</svg>
