<?xml version="1.0" encoding="utf-8"?>
<!-- Generator: Adobe Illustrator 18.1.1, SVG Export Plug-In . SVG Version: 6.00 Build 0)  -->
<svg version="1.1" xmlns="http://www.w3.org/2000/svg" xmlns:xlink="http://www.w3.org/1999/xlink" x="0px" y="0px" viewBox="0 0 145.601 360"
	  style="enable-background:new 0 0 145.601 360;" xml:space="preserve">
<style type="text/css">
	.st0{fill:#FFFFFF;}
	.st1{fill:none;stroke:#003E15;stroke-width:20;stroke-miterlimit:10;}
	.st2{fill:#003E15;}
</style>
<g id="background">
</g>
<g id="Pointer">
	<g>
		<line class="st0" x1="78.601" y1="360" x2="78.601" y2="0"/>
		<g>
			<line class="st1" x1="78.601" y1="48" x2="78.601" y2="0"/>
			<g>
				<path class="st2" d="M90.242,255.565l0.293-6.66c6.855,4.16,31.309-5.469,27.949-25.371c13.34,2.598,21.563-8.77,18.242-21.66
					c-2.812-11.113-3.926-17.617-0.351-37.051c4.434-24.121,11.875-51.836-4.766-80.371c-1.465-2.48-0.104-5.371,1.537-6.123
					c3.125-1.377,12.455-0.342,12.455-8.135V41.131c0-10.371-15.072-18.672-63.236-18.516c-50.156,0.156-69.753,0.713-69.948,21.465
					c-0.156,20.371,0.026,26.016,0.026,26.016c0.195,6.484,4.505,7.52,7.337,8.535c1.621,0.557,2.331,3.037,1.589,4.697
					c-1.152,2.607-12.282,28.34-14.645,50.576c-2.168,20.625-8.416,28.691-6.287,42.578c2.539,16.445,0.782,69.648,0.548,85.566
					c-0.195,15.566,4.844,40.547,4.083,73.711c-0.723,31.66,35.918,31.816,34.258,3.34c-1.309-22.52,1.426-23.272,0.469-31.036
					c-1.68-13.632-0.098-28.691,0.645-39.257c0.352-4.844-1.113-10.176,0.371-24.355c1.855,7.793,4.023,8.125,9.082,19.277
					C58.035,280.018,89.324,270.565,90.242,255.565z"/>
				<path class="st0" d="M77.312,64.081c20-0.547,54.57,3.32,57.773,4.453c2.969,1.055,4.824-1.133,4.414-5.566
					c-0.254-3.086-0.156-18.691-0.156-18.691c0-6.855-7.051-15.195-60.391-15.195c-55.176,0.371-62.227,2.588-62.227,18.887
					l0.586,20.195c0.195,1.211,0.938,2.129,2.188,2.773C22.625,72.528,26.785,65.487,77.312,64.081z"/>
				<path class="st0" d="M82.684,111.19c0.898-0.879,2.402-1.201,3.125-0.801c3.516,1.856,0.84,5.918,0.566,9.063
					c-0.215,2.598-2.598,16.68,0.762,21.855c3.301,5.195,9.785,15.361,23.848,18.887c2.617,0.566,10.43,4.941,12.617,11.68
					c1.524,4.746,6.367,3.945,6.758-0.098c1.016-10.84,5.547-14.16,5.449-47.871c-1.465-26.856-6.68-52.031-42.402-53.711
					c-19.629-0.547-47.109,0.273-57.031,3.135c-10.078,2.939-10,11.123-13.711,18.34C9.793,121.6,10.594,141.6,6.922,158.163
					c-1.445,6.523-3.984,11.484,1.855,19.805c12.441,17.734,16.68,39.082,20.391,44.277c2.305,3.584,3.477,4.609,4.785,5.176
					c2.148,0.908,2.422,4.629,5,7.773c1.484,2.051,2.246,2.969,3.164,5.195c3.867-2.969-0.469-5.644,7.949-9.766
					c1.816-0.879,5.215,0.137,6.66,0.684c3.438,1.953,3.984,9.258,4.492,12.129c0.43,2.285,0.859,5.02,1.348,7.598
					c1.309,6.855-5.723,8.926-3.223,9.16c12.578,1.27,10-15.645,9.063-21.191c-0.469-5.566-3.242-10.098-4.629-15.674
					c-1.855-2.393-2.227-15.127-11.211-14.981c-1.445-0.185-4.688,0.088-3.223-3.896c1.094-3.008,0.977-17.383-3.164-19.531
					c-1.875-0.977-3.125-1.953-4.062-3.984c-0.918-2.031,0.254-3.242,2.578-2.969c2.969,0.361,7.031,0.137,7.969-4.062
					c0.977-3.711,1.055-5.557-0.547-8.145c-1.484-2.773-4.805-7.949-4.629-10.371c0.625-1.953,2.129-3.476,4.238,1.113
					c2.012,4.082,8.672,9.043,16.289,2.031c11.27-10.332,12.129-7.012,13.359-43.652C81.414,113.163,81.726,112.166,82.684,111.19z"
					/>
				<path class="st0" d="M83.328,171.209c-6.133-4.805-8.164-8.516-14.16-3.965c-1.152,0.547-1.152,2.207-0.098,6.758
					c0.547,2.402,10.254,10.449,16.738,3.418C86.726,175.76,87.391,173.905,83.328,171.209z"/>
				<path class="st0" d="M102.469,163.534c0.938-2.93-12.637-7.598-13.516-7.402c-1.289,0.313-2.695,0.508-3.145,6.484
					c0,2.676,5.215,7.598,10.918,7.031C100.633,169.256,102.312,164.1,102.469,163.534z"/>
				<path class="st0" d="M68.309,187.694c-2.852-2.578-8.164-8.398-10.996-6.758c-3.398,1.973-5.117,4.238-2.969,10.273
					c1.406,4.043,7.949,11.582,15.899,3.438C71.258,192.147,72.117,191.209,68.309,187.694z"/>
				<path class="st0" d="M118.289,218.241c17.52,4.199,16.211-15.078,11.602-22.852c-7.422-12.48-9.258-23.34-14.258-27.598
					c-2.813-2.402-10-5.937-10.352-2.402c-0.352,3.125-2.969,5.977-4.473,7.598c-0.645,0.684-5.449-0.293-5.352,0.723
					c0.176,0.742,5.176-0.547,11.094,11.484c2.402,5.195,6.894,16.387,7.773,20.371c0.684,3.066,2.129,6.123,2.871,11.484
					C117.391,218.065,117.918,218.182,118.289,218.241z"/>
				<path class="st0" d="M90.613,241.6c-0.723-13.232,0.059-18.535,0.195-21.777c1.66-16.289-4.59-23.516-9.199-27.031
					c-3.125-3.34-5.723-4.258-7.832-6.855c-1.68-2.09-5.293-4.355,0.273-2.969c2.734,0.684,4.434,2.9,9.004,1.113
					c2.754-1.66,4.434-2.031,7.383-7.031c0.195-0.566,0.273-1.221,0.547-0.742c1.25,1.484,9.805,2.988,13.359,16.66
					c4.688,18.125,9.16,26.152,9.844,29.961c0.117,0.644,0.117,1.68,0,2.519c-0.273,5.586-1.211,7.617-2.637,9.375
					c-1.406,1.758-9.258,11.025-19.004,8.633C91.434,242.987,90.613,242.42,90.613,241.6z"/>
				<path class="st0" d="M60.066,266.131c0,1.289,19.629,3.477,24.629-10.195c2.461-6.719,0.703-10.352,0.938-17.031
					c-0.566-11.484,0.273-20.703,0.176-25.371c-0.137-6.865-1.602-12.246-5.566-15.918c-1.992-1.855-5.156-6.035-6.289-3.242
					c-1.074,2.774-1.562,4.531-6.094,6.934c-5.938,3.145-9.922-0.996-8.359,2.695c1.367,3.164,1.484,3.359,3.906,6.758
					c9.219,12.988,19.063,54.258-1.68,53.32C60.242,264.276,59.168,265.565,60.066,266.131z"/>
				<path class="st0" d="M45.809,245.194c-0.176,2.422,1.426,4.297,2.051,5.742c1.094,2.598,2.774,11.855,8.125,7.598
					c5.391-4.258,0.742-16.865-0.703-21.289c-0.781-1.856-2.051-2.598-3.731-2.598C49.891,234.647,45.809,235.76,45.809,245.194z"/>
				<path class="st0" d="M9.891,314.452c0.176-10.176-5.195-33.692-2.754-46.104c-2.812-15.185,0.176-41.475-0.586-50.185
					c0-7.402-1.641-24.082,0-35.566c1.309,3.164,10.371,15.195,15.176,33.906c1.484,6.484,4.453,11.66,11.504,16.846
					c2.129,13.057,3.027,32.08,1.191,32.959c-0.879,0.43-1.895,0.664-1.387,3.066c0.469,2.129,1.016,1.016,1.191,5
					c0.566,20.547,0.195,31.455,0.195,31.455c-0.273,4.562-1.973,3.038-2.402,4.658c-0.371,1.426,1.133,0.362,1.66,5.176
					c0.273,2.52,1.211,9.064,0.938,27.324c0.351,16.114-24.024,19.844-25.098-7.422C8.777,317.05,10.437,317.244,9.891,314.452z"/>
			</g>
		</g>
	</g>
</g>
</svg>
